PathFileType	4	(X/Y/Z)	pose2sim_0-1073.trc
DataRate	CameraRate	NumFrames	NumMarkers	Units	OrigDataRate	OrigDataStartFrame	OrigNumFrames
50	50	5	22	m	50	537	1074
Frame#	Time	Hip			RHip			RKnee			RAnkle			RBigToe			RSmallToe			RHeel			LHip			LKnee			LAnkle			LBigToe			LSmallToe			LHeel			Neck			Head			Nose			RShoulder			RElbow			RWrist			LShoulder			LElbow			LWrist			
		X1	Y1	Z1	X2	Y2	Z2	X3	Y3	Z3	X4	Y4	Z4	X5	Y5	Z5	X6	Y6	Z6	X7	Y7	Z7	X8	Y8	Z8	X9	Y9	Z9	X10	Y10	Z10	X11	Y11	Z11	X12	Y12	Z12	X13	Y13	Z13	X14	Y14	Z14	X15	Y15	Z15	X16	Y16	Z16	X17	Y17	Z17	X18	Y18	Z18	X19	Y19	Z19	X20	Y20	Z20	X21	Y21	Z21	X22	Y22	Z22	
537	10.74	0.10643708172536451	0.8439841004321019	-0.06296842754410659	0.0037123817746822375	0.8346773212465817	-0.055316405699330294	-0.007225497069230779	0.44495913461739967	-0.07353413678560368	-0.04185012076264441	0.07381170363896827	-0.10680218692941792	-0.07684170898893948	0.03342290810112178	0.06050033733173576	-0.11393240116027331	0.03483858981288919	-0.0023769719668170377	-0.032757760811661395	0.037810385183960495	-0.1470902467021352	0.20917057469035574	0.8316895280372173	-0.05407950046871605	0.22448395727194972	0.4463805262948583	-0.08832098469037533	0.24770935316794507	0.07738333893406275	-0.1111307093887388	0.25847891159330616	0.03277570051486834	0.042382037833135905	0.29708932166533686	0.036646172553473265	0.004659269339222873	0.24404593953171252	0.03902508701085169	-0.15020859447557558	0.12097809732869667	1.4279741258233545	-0.061638637906592464	0.12733707049894952	1.661573064717758	-0.03520978615528698	0.11803536028287487	1.5501962615423708	0.07699954658318366	-0.05363159201717166	1.3305688886842053	-0.08980316820847907	-0.13514222388017297	1.0740803310545513	-0.07329208491888635	-0.12496411071661115	1.209070785909715	0.15423064741380682	0.2916271076131523	1.3219652041092371	-0.09089943722149604	0.3490966112156222	1.0659474926500763	-0.08386634551835236	0.35942785848457903	1.185697215038457	0.09638470422166956
538	10.76	0.10604885502568513	0.84054413738919	-0.056391922551141005	0.004954379804225769	0.830876837648588	-0.04818519495236879	-0.008842878732436851	0.44533308429283147	-0.06896135284663048	-0.042926853449866555	0.07142564358009436	-0.10350080609909539	-0.07417620541543009	0.03139976925381131	0.06226142145879093	-0.11045857221337183	0.03517071307338169	-0.001815560649936085	-0.031626200994762134	0.03821936750639197	-0.14760330137875108	0.20855153711420138	0.8305899893577481	-0.055350910226597605	0.22507577520931343	0.44518035961540264	-0.0856413458338571	0.24865729039339976	0.07607805312851212	-0.110042033528091	0.2606490620681368	0.033142524920134135	0.04737523532140681	0.29903893630698447	0.03562362218047174	0.007233386078461133	0.24187090030160463	0.036473706621719504	-0.14634975351201346	0.122184147146474	1.426873508274352	-0.06153310802883008	0.12722806314141485	1.6633597418838526	-0.031917986924775855	0.12049107948808677	1.551137700990497	0.07344027583847051	-0.055857846360620175	1.3301045839079297	-0.08613064588251346	-0.13580676612805714	1.0733515460636116	-0.07279281087747193	-0.1287767226424425	1.2034894716682112	0.1536393441702124	0.29354361513719907	1.3216796442540442	-0.09355430306704968	0.35230511557456706	1.0653347710853442	-0.09719055639072134	0.3551688457117566	1.1842325086005803	0.11410924440793145
539	10.78	0.10640707981011377	0.8422619556926755	-0.05393247006095513	0.006601024622155815	0.8302635289392453	-0.053941374471271356	-0.008599131233191878	0.44413390419424514	-0.07812221669090993	-0.04172392595185892	0.07306842847579961	-0.10552345955550509	-0.07344927894794143	0.031785683409258664	0.06211527555908019	-0.11214967568321935	0.034375004668648186	-0.003367140866977556	-0.032818152353987745	0.03859188278315006	-0.14417287483779878	0.2089946832072053	0.829964520258642	-0.056410582418952124	0.22579702109519814	0.44673445651657917	-0.08470105376895758	0.24873943233265594	0.07717923020247906	-0.11621237350388322	0.26214608713183135	0.03105563010266612	0.046692583967310436	0.30107753720453273	0.03633730734027388	0.007406799901691298	0.24209212615450293	0.04025036509792546	-0.1523217880280147	0.12232142336152263	1.4284217832525914	-0.06161955583994866	0.1286111037876666	1.6617208760747262	-0.03501842771336969	0.12167974170785151	1.5506998231811282	0.0756489172940539	-0.05474272413678992	1.3303597617958096	-0.08900683766738807	-0.13469429669139915	1.0743733807515723	-0.07393923232558144	-0.1275296237855999	1.2063890555138834	0.1627680298264514	0.28997026261583597	1.3218154619051072	-0.09070596196242108	0.3497871369787614	1.06723910310286	-0.09730563255952662	0.3564367900134298	1.1876923703940383	0.10909190191653093
540	10.8	0.1060883796288876	0.8489269793542372	-0.06238848482324481	0.0043074554604769204	0.8358866890666646	-0.05563850254310769	-0.01031654700147002	0.44488384769336836	-0.06958129540725173	-0.044642874848222124	0.0717528272798717	-0.10845019333833844	-0.07288079377130818	0.035464669282662196	0.07215792441322486	-0.10927353235753781	0.03692793110339431	0.012125343655217021	-0.03708177905303706	0.031083832153034792	-0.14403502338165516	0.20949039895479102	0.8348282007184574	-0.061678167645153686	0.2236392685708033	0.44855950120980675	-0.07937289339948109	0.2467081848389775	0.0717640422955367	-0.11034120659450473	0.24666153337573757	0.03139736564580504	0.06558005020117195	0.2836426668175621	0.030066205625625654	0.024223784980079904	0.24420045857807246	0.03431098489966722	-0.14374664290386108	0.12284615505920406	1.428997925121577	-0.06628687517679226	0.12546635994037508	1.6609518859442454	-0.039818268649125896	0.11236362797761744	1.5592499673786662	0.08122054768246013	-0.05869010102277421	1.3297454512507192	-0.08569653032642643	-0.138035197001768	1.067904674240272	-0.07008287513741164	-0.13260752413696142	1.2119144430011222	0.13859780026645796	0.29493441096767575	1.3195634800448246	-0.08580785693521951	0.3497594735338022	1.0532516985933094	-0.09712209945394881	0.3515785732040335	1.1778845695892448	0.10355030706565259
541	10.82	0.10671131902693198	0.8450776833236285	-0.06188279748153318	0.004005044056630275	0.8329185666929599	-0.054294422800578473	-0.009841747108044972	0.4467112513577828	-0.07640150277091486	-0.043082256660461435	0.07349677229875988	-0.10499598499264326	-0.07327493427081257	0.033031116379076186	0.05933888859194416	-0.11082434264148427	0.03444123716087985	-0.0032427781627991288	-0.0342498591274043	0.03891885765835335	-0.14661515771591335	0.20915049568836594	0.8338857639526019	-0.060478667972167284	0.22441935487673192	0.4467947565529954	-0.08566852994039241	0.24645041615359894	0.07573257439955998	-0.11251608446377251	0.26118831667367526	0.03390964727648629	0.05132141210883901	0.29826091286069156	0.037812239161927344	0.011831571717427184	0.2393587323186919	0.03587958870749851	-0.1482722530667042	0.11997918459469592	1.428564746141298	-0.06410167727237712	0.1276529975296884	1.6630416954385585	-0.035481676551387765	0.11932816683087076	1.5494141689609875	0.07311606446371273	-0.05714389829980746	1.3291411864622875	-0.09141372642886933	-0.13067351037963734	1.0717470452172	-0.08111075589828086	-0.13332602435475024	1.1999672220434412	0.15342883049867292	0.29150766026595537	1.3193783712302385	-0.09663925113112456	0.3501194819219998	1.0648258526384096	-0.1010080117697819	0.3587139595673209	1.1723781863951215	0.1005882518624596
